# xmcd
#
# Track frame offsets:
# 150
# 31056
# 76294
# 109895
# 131844
# 152347
# 178283
# 202250
# 249385
#
# Disc length: 3578 seconds
#
#
# Revision: 3
# Processed by: cddbd v1.5.2PL0 Copyright (c) Steve Scherf et al.
# Submitted via: FreeRIP 2.931 
#
DISCID=750df809
DTITLE=Various Artist - Simply SPA CD 02 Anti - Stress
DYEAR=1900
DGENRE=
TTITLE0=Solar
TTITLE1=Infinity
TTITLE2=Fly Away
TTITLE3=Storyteller's Song
TTITLE4=Still Waters
TTITLE5=Crimson Clouds
TTITLE6=Slide
TTITLE7=Dream Walking
TTITLE8=Alaska
EXTD=
EXTT0=
EXTT1=
EXTT2=
EXTT3=
EXTT4=
EXTT5=
EXTT6=
EXTT7=
EXTT8=
PLAYORDER=
